<svg xmlns="http://www.w3.org/2000/svg" viewBox="0 0 256 256" fill="none">
  <defs>
    <linearGradient id="bg" x1="32" y1="24" x2="224" y2="232" gradientUnits="userSpaceOnUse">
      <stop stop-color="#163556"/>
      <stop offset="1" stop-color="#0C2036"/>
    </linearGradient>
    <linearGradient id="drop" x1="128" y1="62" x2="128" y2="196" gradientUnits="userSpaceOnUse">
      <stop stop-color="#EEF6FF"/>
      <stop offset="1" stop-color="#D7E8FF"/>
    </linearGradient>
  </defs>

  <rect x="20" y="20" width="216" height="216" rx="36" fill="url(#bg)"/>
  <path d="M58 74H198" stroke="#315377" stroke-width="2" stroke-linecap="round" opacity="0.55"/>
  <path d="M58 114H198" stroke="#315377" stroke-width="2" stroke-linecap="round" opacity="0.45"/>
  <path d="M58 154H198" stroke="#315377" stroke-width="2" stroke-linecap="round" opacity="0.35"/>
  <path d="M58 194H198" stroke="#315377" stroke-width="2" stroke-linecap="round" opacity="0.25"/>
  <path d="M74 58V198" stroke="#315377" stroke-width="2" stroke-linecap="round" opacity="0.28"/>
  <path d="M128 58V198" stroke="#315377" stroke-width="2" stroke-linecap="round" opacity="0.28"/>
  <path d="M182 58V198" stroke="#315377" stroke-width="2" stroke-linecap="round" opacity="0.28"/>

  <path
    d="M128 56C108 84 84 104 84 144C84 169.405 104.595 190 130 190C155.405 190 176 169.405 176 144C176 104 148 84 128 56Z"
    fill="url(#drop)"
  />
  <path
    d="M128 56C108 84 84 104 84 144C84 169.405 104.595 190 130 190C155.405 190 176 169.405 176 144C176 104 148 84 128 56Z"
    stroke="#88B6FF"
    stroke-width="4"
    stroke-linejoin="round"
  />

  <path
    d="M101 148L117 134L129 141L146 121L158 129"
    stroke="#0E74FF"
    stroke-width="8"
    stroke-linecap="round"
    stroke-linejoin="round"
  />
  <circle cx="101" cy="148" r="6" fill="#0E74FF"/>
  <circle cx="117" cy="134" r="6" fill="#0E74FF"/>
  <circle cx="129" cy="141" r="6" fill="#0E74FF"/>
  <circle cx="146" cy="121" r="6" fill="#0E74FF"/>
  <circle cx="158" cy="129" r="6" fill="#0E74FF"/>
</svg>
